<svg width="390" height="118" viewBox="0 0 390 118" fill="none" xmlns="http://www.w3.org/2000/svg" role="img" aria-labelledby="title desc">
  <title id="title">Streamline Works logo</title>
  <desc id="desc">A streamlined S mark with speed lines and the words Streamline Works.</desc>
  <defs>
    <linearGradient id="blue" x1="92" y1="10" x2="236" y2="74" gradientUnits="userSpaceOnUse">
      <stop stop-color="#174F91"/>
      <stop offset="1" stop-color="#1FA0EF"/>
    </linearGradient>
    <linearGradient id="dark" x1="142" y1="66" x2="264" y2="91" gradientUnits="userSpaceOnUse">
      <stop stop-color="#3C4448"/>
      <stop offset="1" stop-color="#15191B"/>
    </linearGradient>
    <filter id="softShadow" x="0" y="0" width="390" height="118" filterUnits="userSpaceOnUse" color-interpolation-filters="sRGB">
      <feDropShadow dx="0" dy="6" stdDeviation="8" flood-color="#1F3448" flood-opacity="0.14"/>
    </filter>
  </defs>
  <g filter="url(#softShadow)">
    <path d="M54 42H150" stroke="#174F91" stroke-width="5" stroke-linecap="round"/>
    <path d="M36 53H158" stroke="#1FA0EF" stroke-width="5" stroke-linecap="round"/>
    <path d="M18 64H166" stroke="#242A2D" stroke-width="5" stroke-linecap="round"/>
    <path d="M168 13H290L274 34H179C166 34 157 42 155 55L151 76H110L117 39C121 22 138 13 168 13Z" fill="url(#blue)"/>
    <path d="M146 50H245C270 50 286 65 282 84C278 103 260 110 235 110H111L129 88H238C248 88 255 84 256 76C257 70 252 66 241 66H141L146 50Z" fill="url(#dark)"/>
    <path d="M156 50H245C270 50 286 65 282 84C278 103 260 110 235 110H111L129 88H238C248 88 255 84 256 76C257 70 252 66 241 66H141L146 50H156Z" fill="url(#dark)" fill-opacity="0.93"/>
    <path d="M166 34H274" stroke="white" stroke-width="18" stroke-linecap="round"/>
    <path d="M155 58H241C268 58 273 96 237 96H128" stroke="white" stroke-width="18" stroke-linecap="round"/>
    <path d="M54 42H150" stroke="#174F91" stroke-width="5" stroke-linecap="round"/>
    <path d="M36 53H158" stroke="#1FA0EF" stroke-width="5" stroke-linecap="round"/>
    <path d="M18 64H166" stroke="#242A2D" stroke-width="5" stroke-linecap="round"/>
  </g>
  <text x="16" y="102" fill="#061526" font-family="Inter, Segoe UI, Arial, sans-serif" font-size="32" font-weight="900" letter-spacing="9">STREAMLINE</text>
  <path d="M101 113H154" stroke="#2D79AD" stroke-width="3" stroke-linecap="round"/>
  <text x="169" y="117" fill="#174F91" font-family="Inter, Segoe UI, Arial, sans-serif" font-size="21" font-weight="850" letter-spacing="13">WORKS</text>
  <path d="M293 113H346" stroke="#2D79AD" stroke-width="3" stroke-linecap="round"/>
</svg>
