<svg width="270" height="64" viewBox="0 0 270 64" fill="none" xmlns="http://www.w3.org/2000/svg" role="img" aria-labelledby="title desc">
  <title id="title">Streamline Works logo</title>
  <desc id="desc">A light blue streamlined SW mark with the Streamline Works wordmark.</desc>
  <rect width="270" height="64" rx="12" fill="white"/>
  <rect x="1" y="1" width="268" height="62" rx="11" stroke="#D8E4EE" stroke-width="2"/>
  <g transform="translate(12 12)">
    <rect width="40" height="40" rx="10" fill="#2D79AD"/>
    <path d="M9 14.8C12.5 10.5 19.9 10 24.2 13.7L31.1 19.6C33.6 21.7 33.4 25.5 30.8 27.5C27.4 30.2 21.5 30.2 17.8 27.3L10.3 21.5" stroke="white" stroke-width="4.4" stroke-linecap="round"/>
    <path d="M9 26C12.5 30.6 20.4 31.4 24.9 27.6L31.7 21.9" stroke="#B9DEF7" stroke-width="4.4" stroke-linecap="round"/>
    <path d="M5.8 20H14.2" stroke="#E9F5FC" stroke-width="3.2" stroke-linecap="round"/>
    <path d="M25.8 20H34.2" stroke="#E9F5FC" stroke-width="3.2" stroke-linecap="round"/>
  </g>
  <text x="64" y="29" fill="#1F3448" font-family="Inter, Segoe UI, Arial, sans-serif" font-size="20" font-weight="850" letter-spacing="0">Streamline</text>
  <text x="64" y="47" fill="#667789" font-family="Inter, Segoe UI, Arial, sans-serif" font-size="15" font-weight="800" letter-spacing="1.8">WORKS</text>
  <path d="M200 41H246" stroke="#B9DEF7" stroke-width="4" stroke-linecap="round"/>
  <path d="M218 31H252" stroke="#6EB7E8" stroke-width="4" stroke-linecap="round"/>
</svg>
